<?xml version="1.0" standalone="no"?><!DOCTYPE svg PUBLIC "-//W3C//DTD SVG 1.1//EN" "http://www.w3.org/Graphics/SVG/1.1/DTD/svg11.dtd"><svg t="1649320133030" class="icon" viewBox="0 0 1024 1024" version="1.1" xmlns="http://www.w3.org/2000/svg" p-id="9817" xmlns:xlink="http://www.w3.org/1999/xlink" width="200" height="200"><defs><style type="text/css">@font-face { font-family: feedback-iconfont; src: url("//at.alicdn.com/t/font_1031158_u69w8yhxdu.woff2?t=1630033759944") format("woff2"), url("//at.alicdn.com/t/font_1031158_u69w8yhxdu.woff?t=1630033759944") format("woff"), url("//at.alicdn.com/t/font_1031158_u69w8yhxdu.ttf?t=1630033759944") format("truetype"); }
</style></defs><path d="M106.782 150.802H917.22v873.082H106.782z" fill="#3BAFDA" p-id="9818"></path><path d="M149.428 108.14h725.144v873.066H149.428z" fill="#F5F7FA" p-id="9819"></path><path d="M106.782 65.494H917.22v873.096H106.782z" fill="#4FC2E9" p-id="9820"></path><path d="M234.752 703.488l158.432-264.066 158.432 264.066z" fill="#E6E9ED" p-id="9821"></path><path d="M366.784 703.488l211.232-369.682 211.232 369.682z" fill="#F5F7FA" p-id="9822"></path><path d="M256.058 128.088c-11.78 0-21.306-9.544-21.306-21.322V21.442c0-11.78 9.528-21.324 21.306-21.324s21.34 9.544 21.34 21.324v85.324c0 11.776-9.56 21.322-21.34 21.322zM384.03 128.088c-11.78 0-21.338-9.544-21.338-21.322V21.442c0-11.78 9.558-21.324 21.338-21.324s21.338 9.544 21.338 21.324v85.324c0 11.776-9.56 21.322-21.338 21.322zM512 128.088c-11.78 0-21.34-9.544-21.34-21.322V21.442c0-11.78 9.56-21.324 21.34-21.324 11.778 0 21.338 9.544 21.338 21.324v85.324c0 11.776-9.56 21.322-21.338 21.322zM639.968 128.088c-11.778 0-21.338-9.544-21.338-21.322V21.442c0-11.78 9.56-21.324 21.338-21.324 11.782 0 21.34 9.544 21.34 21.324v85.324c0 11.776-9.558 21.322-21.34 21.322zM767.942 128.088c-11.78 0-21.34-9.544-21.34-21.322V21.442c0-11.78 9.56-21.324 21.34-21.324 11.778 0 21.306 9.544 21.306 21.324v85.324c0 11.776-9.53 21.322-21.306 21.322z" fill="#E6E9ED" p-id="9823"></path></svg>